<?xml version="1.0" encoding="utf-8"?>
<!-- Generator: Adobe Illustrator 18.1.1, SVG Export Plug-In . SVG Version: 6.00 Build 0)  -->
<svg version="1.1" xmlns="http://www.w3.org/2000/svg" xmlns:xlink="http://www.w3.org/1999/xlink" x="0px" y="0px" width="40px"
	 height="40px" viewBox="0 0 40 40" enable-background="new 0 0 40 40" xml:space="preserve">

<g id="Layer_3">
	<path fill-rule="evenodd" clip-rule="evenodd" d="M34,16l-3-1v17h-5c0,0,0-9.6,0-10s-0.6-1-1-1H15c-0.4,0-1,0.6-1,1
		v10H9V15l-3,1c0,0,0,16,0,17s1,2,2,2s9,0,9,0V24h6v11c0,0,8,0,9,0s2-1,2-2S34,16,34,16z"/>
	<polyline fill-rule="evenodd" clip-rule="evenodd" stroke-miterlimit="10" points="
		3,19 20,5 37,19 	"/>
</g>

</svg>
